# xmcd
#
# Track frame offsets:
#	150
#	18056
#	38200
#	56952
#	74846
#	89803
#
# Disc length: 1458 seconds
#
# Revision: 1
# Processed by: cddbd v1.5.2PL0 Copyright (c) Steve Scherf et al.
# Submitted via: audiograbber 1.83.01
#
DISCID=5605b006
DTITLE=J.D. Shelburne - J.D. Shelburne EP
DYEAR=2013
DGENRE=Country
TTITLE0=Farmboy
TTITLE1=Grandma and Garth
TTITLE2=Smalltown Star
TTITLE3=Love Hard
TTITLE4=Summer
TTITLE5=Something Bout A Smalltown
EXTD=
EXTT0=
EXTT1=
EXTT2=
EXTT3=
EXTT4=
EXTT5=
PLAYORDER=
